PathFileType	4	(X/Y/Z)	\\Move.snu.ac.kr\motion\Animal\091204_091205_Bird\091205_bird\Project 2\Capture day 2\Session 1\pigeon_011.trc
DataRate	CameraRate	NumFrames	NumMarkers	Units	OrigDataRate	OrigDataStartFrame	OrigNumFrames
240.0	240.0	18	14	mm	240.0	324	1439
Frame#	Time	14MarkersBird:Head			14MarkersBird:C_back			14MarkersBird:Spine			14MarkersBird:L-shoulder			14MarkersBird:L-elbow			14MarkersBird:L-wrist			14MarkersBird:L-hand			14MarkersBird:R-shoulder			14MarkersBird:R-elbow			14MarkersBird:R-Wrist			14MarkersBird:R-hand			14MarkersBird:C_Tail			14MarkersBird:L-Tale			14MarkersBird:R-Tale			
		X1	Y1	Z1	X2	Y2	Z2	X3	Y3	Z3	X4	Y4	Z4	X5	Y5	Z5	X6	Y6	Z6	X7	Y7	Z7	X8	Y8	Z8	X9	Y9	Z9	X10	Y10	Z10	X11	Y11	Z11	X12	Y12	Z12	X13	Y13	Z13	X14	Y14	Z14	

941	3.917	1393.36011	-120.79453	2854.04590	1357.18103	-128.35255	2800.77539	1321.46899	-142.83124	2762.73950	1389.64307	-132.06418	2813.02075	1401.09778	-138.40160	2782.22778	1441.80310	-152.90501	2790.56934	1468.30164	-159.55547	2781.43945	1358.78870	-129.42688	2842.25610	1332.21069	-122.38922	2845.79004	1331.24133	-129.32841	2889.50903	1315.52625	-130.69745	2924.84863	1262.52661	-222.60825	2688.36182	1370.12512	-196.61142	2685.22803	1220.32703	-184.09627	2797.23901	
942	3.921	1407.56531	-123.57369	2869.78369	1371.58960	-130.29240	2816.15479	1335.66809	-144.86165	2778.23340	1404.08667	-134.32402	2828.88770	1416.64844	-143.78152	2799.43188	1455.18872	-159.87984	2814.11792	1481.08093	-170.62938	2809.81689	1373.45508	-131.54898	2857.81934	1347.61731	-127.69394	2863.89038	1351.60315	-138.44052	2906.49902	1340.08167	-146.41130	2942.09521	1276.14233	-228.70866	2707.99243	1382.63403	-201.77307	2701.83130	1234.21021	-184.71974	2814.17480	
943	3.925	1421.94678	-126.14658	2885.48706	1386.04565	-132.01477	2831.52856	1349.91089	-147.14049	2793.81787	1418.64246	-136.35268	2844.60620	1431.51758	-148.47481	2816.34521	1467.76245	-165.12401	2836.65137	1491.65466	-179.35060	2837.28003	1388.14709	-133.39145	2873.33447	1362.80835	-132.35310	2880.91528	1371.79004	-146.02281	2921.97412	1364.54492	-159.78455	2956.93799	1290.00549	-234.42218	2727.51440	1395.44800	-206.81679	2718.51660	1248.20667	-185.14403	2831.34692	
944	3.929	1436.51038	-128.56363	2901.18774	1400.53296	-133.60794	2846.98438	1364.17493	-149.72185	2809.69360	1433.21960	-138.20799	2860.21460	1445.76099	-152.47183	2832.75464	1480.08032	-168.36394	2857.62524	1501.01758	-185.12267	2862.83545	1402.85413	-135.00439	2888.90210	1377.58435	-136.19453	2897.02148	1391.35315	-151.41483	2936.32568	1387.99780	-169.62793	2970.19409	1304.06128	-239.76907	2746.92041	1408.47705	-211.90065	2735.33594	1262.32312	-185.68398	2848.41406	
945	3.933	1451.26660	-130.89078	2916.94141	1415.10669	-135.22437	2862.62378	1378.50085	-152.61638	2825.97339	1447.76965	-139.98601	2875.84595	1459.54956	-155.69275	2848.50195	1492.64697	-169.39445	2876.68042	1510.51855	-187.61855	2885.63818	1417.57886	-136.47121	2904.60376	1391.89648	-139.05371	2912.45703	1409.85852	-154.12866	2950.07739	1409.71448	-175.44983	2982.78784	1318.20569	-244.60162	2766.15894	1421.61011	-217.03551	2752.31860	1276.50806	-186.55708	2865.07495	
946	3.938	1466.19434	-133.13852	2932.79907	1429.83301	-137.05846	2878.54736	1392.98804	-155.42931	2842.26904	1462.34558	-141.82974	2891.64136	1473.09680	-157.95332	2863.49365	1505.75952	-168.27000	2893.64087	1521.41333	-187.08473	2905.10742	1432.32288	-137.93671	2920.45459	1405.75049	-140.78186	2927.35132	1426.91553	-154.10352	2963.67529	1428.94592	-177.63544	2995.38599	1332.27148	-248.73062	2785.15601	1434.72900	-222.16243	2769.45874	1290.74646	-187.94986	2881.24683	
947	3.942	1481.24695	-135.29417	2948.79004	1444.75623	-139.26007	2894.83276	1407.70251	-157.75705	2858.27637	1476.99731	-143.89827	2907.67334	1486.44470	-159.09209	2877.81689	1519.38940	-165.42155	2908.63330	1534.30566	-184.47523	2920.99146	1447.10022	-139.56169	2936.42529	1419.23071	-141.34361	2941.66479	1442.37195	-151.73323	2977.31470	1445.04443	-177.10223	3008.33838	1346.06445	-252.01126	2803.82471	1447.70203	-227.17577	2786.67871	1305.10168	-190.00493	2897.08252	
948	3.946	1496.39331	-137.39326	2964.91772	1459.85376	-141.88495	2911.51709	1422.65796	-159.61403	2874.18555	1491.69641	-146.29599	2923.95947	1499.39172	-159.13715	2891.82861	1533.21826	-161.50073	2922.12891	1548.82019	-181.07840	2933.35352	1461.93933	-141.52301	2952.45337	1432.57849	-140.92023	2955.28906	1456.40881	-147.65886	2990.94067	1457.70264	-174.63234	3021.63110	1359.48767	-254.38406	2822.07227	1460.42676	-231.87608	2803.77515	1319.66846	-192.66176	2912.83667	
949	3.950	1511.58887	-139.51825	2981.17358	1475.04175	-144.90305	2928.54761	1437.83643	-161.30556	2890.28809	1506.39331	-149.02347	2940.52979	1511.65051	-158.32950	2906.08667	1546.89319	-157.15308	2934.66943	1563.80591	-177.79358	2942.54199	1476.85498	-143.94484	2968.48975	1446.24731	-139.89491	2968.09180	1469.41980	-142.53104	3004.38647	1467.08411	-170.67390	3034.78516	1372.62207	-255.97066	2839.80200	1472.94055	-235.93878	2820.43213	1334.47449	-195.53511	2928.73804	
950	3.954	1526.76709	-141.74078	2997.51514	1490.22546	-148.22736	2945.77686	1453.18103	-162.96721	2906.50659	1521.06714	-151.91353	2957.44238	1523.08423	-157.05336	2921.12158	1560.21277	-152.81345	2946.72266	1577.91870	-174.73042	2949.16968	1491.81384	-146.82448	2984.47144	1460.77771	-138.71095	2979.97632	1481.82654	-136.98090	3017.42773	1473.77429	-165.44226	3046.97559	1385.71252	-257.05743	2856.93433	1485.48242	-239.03690	2836.38770	1349.41089	-197.96399	2944.90601	
951	3.958	1541.89233	-144.08949	3013.87891	1505.33594	-151.74736	2963.03027	1468.54041	-164.72301	2922.81860	1535.75159	-154.68613	2974.75269	1533.86292	-155.67348	2937.19995	1573.13086	-148.76347	2958.71851	1590.17285	-171.39601	2954.19653	1506.77271	-149.98506	3000.32959	1476.56238	-137.71147	2991.02002	1494.04187	-131.65102	3029.90161	1478.69763	-158.96979	3057.45630	1399.02051	-257.90582	2873.38843	1498.43201	-241.04184	2851.68628	1364.26709	-199.24736	2961.24658	
952	3.963	1556.95300	-146.58597	3030.22119	1520.34509	-155.28993	2980.21191	1483.77942	-166.69383	2939.24438	1550.45740	-157.25128	2992.31470	1544.40088	-154.50700	2954.30493	1585.67554	-145.29585	2971.15063	1600.32935	-167.20366	2958.92554	1521.76587	-153.16809	3016.07764	1493.69043	-137.21707	3001.63184	1506.45471	-127.06742	3041.91479	1483.00842	-151.14665	3065.77710	1412.66772	-258.67902	2889.15820	1512.20935	-241.94363	2866.52979	1378.87292	-198.95293	2977.56177	
953	3.967	1571.94666	-149.27010	3046.50269	1535.25818	-158.74500	2997.28564	1498.86597	-168.98418	2955.71924	1565.16040	-159.80563	3009.76831	1555.20630	-153.87321	2972.21143	1597.96436	-142.76407	2984.41089	1608.93701	-161.89340	2964.67261	1536.82092	-156.23207	3031.81641	1511.83301	-137.65277	3012.62793	1519.27612	-123.58260	3053.82983	1488.12439	-141.98314	3071.87695	1426.60791	-259.42349	2904.24023	1527.13757	-242.01236	2881.18848	1393.23926	-197.11688	2993.67529	
954	3.971	1586.87671	-152.16656	3062.68140	1550.03992	-162.06560	3014.17651	1513.84509	-171.57840	2972.01831	1579.83179	-162.75537	3026.69336	1566.79919	-154.04065	2990.57080	1610.34082	-141.25836	2998.51343	1617.03052	-155.61163	2972.38062	1551.84399	-159.28778	3047.65771	1530.31580	-139.36902	3024.95117	1532.40112	-121.33681	3066.15088	1495.50049	-131.80208	3076.34790	1440.72363	-260.11478	2918.59180	1543.25513	-241.95389	2896.12842	1407.57324	-194.26012	3009.54199	
955	3.975	1601.73193	-155.28075	3078.75098	1564.67468	-165.23477	3030.76074	1528.69409	-174.52785	2988.09302	1594.50867	-166.22287	3042.99878	1579.62915	-155.12018	3008.95093	1623.39856	-140.77408	3012.90405	1625.83130	-148.85876	2982.38525	1566.69690	-162.50478	3063.70020	1548.48584	-142.18724	3038.94067	1545.44800	-120.30991	3079.35986	1506.02722	-121.29087	3080.79443	1454.94409	-260.66806	2932.13013	1560.26050	-242.26372	2911.57520	1422.08984	-191.15341	3025.24438	
956	3.979	1616.50269	-158.60718	3094.72803	1579.20984	-168.35146	3046.97632	1543.32251	-177.88373	3004.00195	1609.25610	-169.87964	3058.96533	1593.94604	-157.01964	3026.90942	1637.56946	-141.31136	3026.92456	1636.53345	-142.48300	2994.41943	1581.28845	-165.92242	3079.95239	1565.81140	-145.41432	3054.40942	1557.95337	-120.47525	3093.77393	1519.43945	-111.51601	3087.61938	1469.28906	-260.97852	2944.85205	1577.64014	-242.84874	2927.28516	1436.84229	-188.70163	3040.98999	
957	3.983	1631.17944	-162.12161	3110.62500	1593.70605	-171.53114	3062.87939	1557.68042	-181.65511	3019.83447	1624.06262	-173.43044	3074.83301	1609.63525	-159.58389	3044.03955	1653.04248	-143.51408	3039.84741	1650.11194	-137.75534	3007.79468	1595.59778	-169.47617	3096.33276	1581.84790	-148.33081	3071.10132	1569.70569	-121.82868	3109.43921	1534.36316	-103.87621	3099.04370	1483.84216	-260.92673	2956.87280	1594.87329	-243.52322	2942.85669	1451.67224	-187.85132	3057.03613	
958	3.987	1645.74414	-165.77293	3126.43994	1608.19702	-174.73207	3078.55933	1571.82324	-185.79504	3035.61572	1638.85535	-177.11876	3090.39038	1626.23987	-162.77211	3060.08398	1669.59399	-147.90274	3051.62549	1667.06299	-136.06987	3021.70508	1609.67920	-173.07909	3112.68774	1596.30383	-150.74196	3088.79810	1580.87109	-124.39765	3126.12817	1549.18286	-99.54561	3115.96045	1498.70190	-260.49820	2968.45776	1611.53345	-244.51015	2958.17749	1466.35571	-189.26125	3073.44629	
